<?xml version="1.0" encoding="UTF-8"?>
<svg width="320" height="180" viewBox="0 0 320 180" xmlns="http://www.w3.org/2000/svg">
  <defs>
    <linearGradient id="bus-body" x1="0" y1="0" x2="1" y2="0.2">
      <stop offset="0%" stop-color="#f97316"/>
      <stop offset="50%" stop-color="#fb923c"/>
      <stop offset="100%" stop-color="#ea580c"/>
    </linearGradient>
    <linearGradient id="bus-shine" x1="0" y1="0" x2="0" y2="1">
      <stop offset="0%" stop-color="#ffffff" stop-opacity="0.5"/>
      <stop offset="100%" stop-color="#ffffff" stop-opacity="0"/>
    </linearGradient>
    <radialGradient id="wheel-grad-bus">
      <stop offset="0%" stop-color="#1f2937"/>
      <stop offset="70%" stop-color="#111827"/>
      <stop offset="100%" stop-color="#000000"/>
    </radialGradient>
    <filter id="shadow-bus">
      <feGaussianBlur in="SourceAlpha" stdDeviation="4"/>
      <feOffset dx="2" dy="5" result="offsetblur"/>
      <feComponentTransfer>
        <feFuncA type="linear" slope="0.3"/>
      </feComponentTransfer>
      <feMerge>
        <feMergeNode/>
        <feMergeNode in="SourceGraphic"/>
      </feMerge>
    </filter>
  </defs>
  
  <g filter="url(#shadow-bus)">
    <!-- Main body -->
    <rect x="25" y="55" width="270" height="60" rx="12" fill="url(#bus-body)" stroke="#c2410c" stroke-width="3"/>
    
    <!-- Windows -->
    <rect x="40" y="62" width="140" height="26" rx="4" fill="#bae6fd" stroke="#0369a1" stroke-width="2" opacity="0.7"/>
    <rect x="190" y="62" width="48" height="26" rx="4" fill="#bae6fd" stroke="#0369a1" stroke-width="2" opacity="0.7"/>
    <rect x="245" y="62" width="40" height="26" rx="4" fill="#bae6fd" stroke="#0369a1" stroke-width="2" opacity="0.7"/>
    
    <!-- Window reflections -->
    <rect x="40" y="62" width="140" height="10" rx="4" fill="url(#bus-shine)"/>
    <rect x="190" y="62" width="48" height="10" rx="4" fill="url(#bus-shine)"/>
    
    <!-- Window dividers -->
    <line x1="95" y1="62" x2="95" y2="88" stroke="#0369a1" stroke-width="2"/>
    <line x1="135" y1="62" x2="135" y2="88" stroke="#0369a1" stroke-width="2"/>
    
    <!-- Headlights -->
    <ellipse cx="285" cy="80" rx="10" ry="8" fill="#fef3c7" stroke="#fbbf24" stroke-width="2"/>
    <ellipse cx="285" cy="80" rx="5" ry="4" fill="#ffffff" opacity="0.9"/>
    
    <!-- Front grill -->
    <rect x="275" y="95" width="18" height="15" rx="2" fill="#78350f" stroke="#451a03" stroke-width="2"/>
    <line x1="277" y1="98" x2="291" y2="98" stroke="#92400e" stroke-width="1"/>
    <line x1="277" y1="102" x2="291" y2="102" stroke="#92400e" stroke-width="1"/>
    <line x1="277" y1="106" x2="291" y2="106" stroke="#92400e" stroke-width="1"/>
    
    <!-- Door -->
    <rect x="30" y="65" width="3" height="45" fill="#c2410c"/>
    
    <!-- Body shine -->
    <path d="M40 60 Q100 55 180 55 L240 55 Q270 55 285 65" 
          stroke="url(#bus-shine)" stroke-width="8" fill="none" opacity="0.6"/>
    
    <!-- Side stripe -->
    <rect x="35" y="95" width="250" height="6" fill="#fed7aa" rx="1"/>
    
    <!-- Wheels -->
    <g>
      <circle cx="75" cy="125" r="22" fill="url(#wheel-grad-bus)" stroke="#374151" stroke-width="4"/>
      <circle cx="75" cy="125" r="12" fill="#6b7280"/>
      <circle cx="75" cy="125" r="5" fill="#9ca3af"/>
      
      <circle cx="245" cy="125" r="22" fill="url(#wheel-grad-bus)" stroke="#374151" stroke-width="4"/>
      <circle cx="245" cy="125" r="12" fill="#6b7280"/>
      <circle cx="245" cy="125" r="5" fill="#9ca3af"/>
    </g>
    
    <!-- Wheel arches -->
    <path d="M50 115 Q75 105 100 115" stroke="#c2410c" stroke-width="3" fill="none"/>
    <path d="M220 115 Q245 105 270 115" stroke="#c2410c" stroke-width="3" fill="none"/>
    
    <!-- Ground shadow -->
    <ellipse cx="160" cy="145" rx="130" ry="10" fill="#000000" opacity="0.2"/>
  </g>
</svg>
