<?xml version="1.0" encoding="UTF-8"?>
<svg width="300" height="160" viewBox="0 0 300 160" xmlns="http://www.w3.org/2000/svg">
  <defs>
    <linearGradient id="car-body" x1="0" y1="0" x2="1" y2="0.3">
      <stop offset="0%" stop-color="#2563eb"/>
      <stop offset="50%" stop-color="#3b82f6"/>
      <stop offset="100%" stop-color="#1d4ed8"/>
    </linearGradient>
    <linearGradient id="car-shine" x1="0" y1="0" x2="0" y2="1">
      <stop offset="0%" stop-color="#ffffff" stop-opacity="0.6"/>
      <stop offset="100%" stop-color="#ffffff" stop-opacity="0"/>
    </linearGradient>
    <radialGradient id="wheel-grad-car">
      <stop offset="0%" stop-color="#1f2937"/>
      <stop offset="70%" stop-color="#111827"/>
      <stop offset="100%" stop-color="#000000"/>
    </radialGradient>
    <filter id="shadow-car">
      <feGaussianBlur in="SourceAlpha" stdDeviation="3"/>
      <feOffset dx="2" dy="4" result="offsetblur"/>
      <feComponentTransfer>
        <feFuncA type="linear" slope="0.3"/>
      </feComponentTransfer>
      <feMerge>
        <feMergeNode/>
        <feMergeNode in="SourceGraphic"/>
      </feMerge>
    </filter>
  </defs>
  
  <g filter="url(#shadow-car)">
    <!-- Body -->
    <path d="M30 100 L70 60 Q90 45 130 45 L200 45 Q230 45 250 70 L280 100 Z" 
          fill="url(#car-body)" stroke="#1e40af" stroke-width="3"/>
    
    <!-- Roof -->
    <path d="M85 60 Q95 48 125 48 L175 48 Q195 48 205 60 Z" 
          fill="url(#car-body)" stroke="#1e40af" stroke-width="2"/>
    
    <!-- Windows -->
    <path d="M90 60 Q98 52 120 52 L140 52 L140 78 L90 78 Z" 
          fill="#bae6fd" stroke="#0369a1" stroke-width="2" opacity="0.7"/>
    <path d="M145 52 L170 52 Q190 52 200 60 L200 78 L145 78 Z" 
          fill="#bae6fd" stroke="#0369a1" stroke-width="2" opacity="0.7"/>
    
    <!-- Window reflections -->
    <path d="M90 60 Q98 52 120 52 L140 52 L140 62 L90 62 Z" 
          fill="url(#car-shine)"/>
    <path d="M145 52 L170 52 Q190 52 200 60 L200 62 L145 62 Z" 
          fill="url(#car-shine)"/>
    
    <!-- Headlights -->
    <ellipse cx="265" cy="75" rx="10" ry="8" fill="#fef3c7" stroke="#fbbf24" stroke-width="2"/>
    <ellipse cx="265" cy="75" rx="5" ry="4" fill="#ffffff" opacity="0.9"/>
    
    <!-- Taillights -->
    <ellipse cx="40" cy="75" rx="8" ry="6" fill="#ef4444" stroke="#991b1b" stroke-width="2"/>
    
    <!-- Door handle -->
    <rect x="165" y="80" width="20" height="4" rx="2" fill="#1e40af" stroke="#1e3a8a" stroke-width="1"/>
    
    <!-- Side mirror -->
    <ellipse cx="75" cy="65" rx="8" ry="6" fill="#1e40af" stroke="#1e3a8a" stroke-width="2"/>
    <ellipse cx="75" cy="65" rx="5" ry="3" fill="#bae6fd" opacity="0.6"/>
    
    <!-- Wheels -->
    <g>
      <circle cx="85" cy="110" r="20" fill="url(#wheel-grad-car)" stroke="#374151" stroke-width="4"/>
      <circle cx="85" cy="110" r="10" fill="#6b7280"/>
      <circle cx="85" cy="110" r="4" fill="#9ca3af"/>
      <!-- Wheel spokes -->
      <line x1="85" y1="100" x2="85" y2="120" stroke="#9ca3af" stroke-width="2"/>
      <line x1="75" y1="110" x2="95" y2="110" stroke="#9ca3af" stroke-width="2"/>
      
      <circle cx="235" cy="110" r="20" fill="url(#wheel-grad-car)" stroke="#374151" stroke-width="4"/>
      <circle cx="235" cy="110" r="10" fill="#6b7280"/>
      <circle cx="235" cy="110" r="4" fill="#9ca3af"/>
      <!-- Wheel spokes -->
      <line x1="235" y1="100" x2="235" y2="120" stroke="#9ca3af" stroke-width="2"/>
      <line x1="225" y1="110" x2="245" y2="110" stroke="#9ca3af" stroke-width="2"/>
    </g>
    
    <!-- Body shine -->
    <path d="M80 60 Q120 50 160 50 L200 50 Q220 50 240 65" 
          stroke="url(#car-shine)" stroke-width="6" fill="none" opacity="0.5"/>
    
    <!-- Door line -->
    <line x1="145" y1="55" x2="145" y2="95" stroke="#1e40af" stroke-width="2" opacity="0.5"/>
    
    <!-- Bumper -->
    <rect x="30" y="96" width="250" height="6" rx="3" fill="#1e3a8a"/>
    
    <!-- Ground shadow -->
    <ellipse cx="160" cy="128" rx="110" ry="8" fill="#000000" opacity="0.2"/>
  </g>
</svg>
